<svg width="24" height="24" viewBox="0 0 24 24" fill="none" xmlns="http://www.w3.org/2000/svg">
<path d="M17 2H7C4.23858 2 2 4.23858 2 7V17C2 19.7614 4.23858 22 7 22H17C19.7614 22 22 19.7614 22 17V7C22 4.23858 19.7614 2 17 2Z" stroke="#F39C12" stroke-width="1.5" stroke-linecap="round" stroke-linejoin="round"/>
<path d="M16 11.3698C16.1234 12.2021 15.9812 13.052 15.5937 13.7988C15.2062 14.5456 14.5931 15.1512 13.8416 15.5295C13.0901 15.9077 12.2384 16.0394 11.4077 15.9057C10.5771 15.7721 9.80971 15.3799 9.21479 14.785C8.61987 14.1901 8.22768 13.4227 8.09402 12.592C7.96035 11.7614 8.09202 10.9097 8.47028 10.1582C8.84854 9.40667 9.45414 8.79355 10.2009 8.40605C10.9477 8.01856 11.7977 7.8764 12.63 7.99981C13.4789 8.1257 14.2648 8.52128 14.8716 9.12812C15.4785 9.73496 15.8741 10.5209 16 11.3698Z" stroke="#F39C12" stroke-width="1.5" stroke-linecap="round" stroke-linejoin="round"/>
<path d="M18.9838 6.27998C19.0301 6.59207 18.9767 6.91081 18.8314 7.19085C18.6861 7.4709 18.4562 7.698 18.1744 7.83985C17.8926 7.9817 17.5732 8.03107 17.2617 7.98095C16.9502 7.93082 16.6624 7.78375 16.4393 7.56066C16.2162 7.33756 16.0692 7.0498 16.0191 6.7383C15.9689 6.42681 16.0183 6.10744 16.1601 5.82562C16.302 5.5438 16.5291 5.31388 16.8091 5.16857C17.0892 5.02325 17.4079 4.96995 17.72 5.01623C18.0384 5.06343 18.3331 5.21177 18.5607 5.43934C18.7882 5.66691 18.9366 5.96163 18.9838 6.27998Z" fill="#F39C12"/>
</svg>
